name analog
datacolumns 19
datarows 42
range 0.0 0.0205
endheader
time	ground_force_vx	ground_force_vy	ground_force_vz	ground_force_px	ground_force_py	ground_force_pz	l_ground_force_vx	l_ground_force_vy	l_ground_force_vz	l_ground_force_px	l_ground_force_py	l_ground_force_pz	ground_torque_x	ground_torque_y	ground_torque_z	l_ground_torque_x	l_ground_torque_y	l_ground_torque_z
0.0	-0.0	-0.0	-0.0	5.6077165603637695	15.20230484008789	-323.2093200683594	-5.854911804199219	-16.527124404907227	-301.0196533203125	-0.0	-0.0	-0.0	-0.0	-0.0	-0.0	108867.9609375	10521.79296875	-5059.908203125
0.0005	-0.0	-0.0	-0.0	5.238474845886231	15.317967414855955	-321.188720703125	-5.525821685791016	-16.30105209350586	-301.0700378417969	-0.0	-0.0	-0.0	-0.0	-0.0	-0.0	108581.84375	10308.533203125	-5072.009765625
0.001	-0.0	-0.0	-0.0	5.288287162780762	15.201858520507812	-322.60955810546875	-5.487230777740479	-15.885122299194336	-301.4189147949219	-0.0	-0.0	-0.0	-0.0	-0.0	-0.0	108474.0	10485.248046875	-5101.56689453125
0.0015	-0.0	-0.0	-0.0	5.070158004760742	15.382408142089844	-321.59002685546875	-5.588779449462891	-16.087289810180664	-301.0190734863281	-0.0	-0.0	-0.0	-0.0	-0.0	-0.0	108362.46875	10230.03125	-5089.17138671875
0.002	-0.0	-0.0	-0.0	5.300386428833008	15.01084041595459	-322.05133056640625	-6.158847332000732	-15.683622360229492	-298.8251953125	-0.0	-0.0	-0.0	-0.0	-0.0	-0.0	108461.2578125	10364.416015625	-5042.73876953125
0.0025	-0.0	-0.0	-0.0	5.672674179077148	15.407304763793944	-321.1376953125	-5.728187084197998	-15.696016311645508	-299.37255859375	-0.0	-0.0	-0.0	-0.0	-0.0	-0.0	108603.921875	10471.294921875	-5152.6552734375
0.003	-0.0	-0.0	-0.0	5.352630615234375	15.200897216796877	-322.1153869628906	-5.576180458068848	-15.83466911315918	-300.1195983886719	-0.0	-0.0	-0.0	-0.0	-0.0	-0.0	108357.1484375	10363.1572265625	-5194.9814453125
0.0035	-0.0	-0.0	-0.0	5.340477466583252	15.419559478759766	-321.7633056640625	-5.537745952606201	-16.15036392211914	-301.4692687988281	-0.0	-0.0	-0.0	-0.0	-0.0	-0.0	108441.9921875	10382.4111328125	-5326.5693359375
0.004	-0.0	-0.0	-0.0	5.466036796569824	15.212603569030762	-323.5128173828125	-5.893607139587402	-15.998674392700195	-300.821044921875	-0.0	-0.0	-0.0	-0.0	-0.0	-0.0	108451.796875	10396.0341796875	-5220.763671875
0.0045000000000000005	-0.0	-0.0	-0.0	5.762608051300049	15.229284286499023	-323.3223876953125	-5.487637042999268	-15.910280227661133	-299.46759033203125	-0.0	-0.0	-0.0	-0.0	-0.0	-0.0	108493.4140625	10376.2705078125	-5114.31591796875
0.005	-0.0	-0.0	-0.0	5.7747111320495605	15.330429077148438	-322.6640930175781	-6.121044158935547	-16.505769729614258	-299.7261657714844	-0.0	-0.0	-0.0	-0.0	-0.0	-0.0	108319.2734375	10292.5009765625	-5212.84033203125
0.0055	-0.0	-0.0	-0.0	5.834525108337402	15.14023208618164	-322.80645751953125	-5.628139495849609	-16.506208419799805	-300.6773376464844	-0.0	-0.0	-0.0	-0.0	-0.0	-0.0	108206.390625	10394.49609375	-5153.23583984375
0.006	-0.0	-0.0	-0.0	5.70947265625	15.484962463378906	-322.9004821777344	-5.958741664886475	-16.26340103149414	-301.3773498535156	-0.0	-0.0	-0.0	-0.0	-0.0	-0.0	108507.40625	10599.2626953125	-5204.63134765625
0.006500000000000001	-0.0	-0.0	-0.0	5.453660011291504	15.663333892822266	-323.5596008300781	-5.524521827697754	-15.934422492980955	-300.17413330078125	-0.0	-0.0	-0.0	-0.0	-0.0	-0.0	108285.9296875	10416.279296875	-5195.09521484375
0.007	-0.0	-0.0	-0.0	5.209447860717773	15.532160758972168	-323.4197998046875	-5.677490234375	-16.187070846557617	-300.8730163574219	-0.0	-0.0	-0.0	-0.0	-0.0	-0.0	108407.71875	10365.765625	-5208.69921875
0.0075	-0.0	-0.0	-0.0	5.596848487854004	15.264691352844238	-321.2435302734375	-5.7138352394104	-16.403709411621094	-299.3659973144531	-0.0	-0.0	-0.0	-0.0	-0.0	-0.0	108019.7734375	10231.0888671875	-5187.2841796875
0.008	-0.0	-0.0	-0.0	5.883893489837647	15.252939224243164	-324.03466796875	-5.818731784820557	-16.227176666259766	-299.22296142578125	-0.0	-0.0	-0.0	-0.0	-0.0	-0.0	107916.875	10383.9521484375	-5217.0322265625
0.0085	-0.0	-0.0	-0.0	5.717633724212647	15.497121810913086	-323.55865478515625	-5.701465129852295	-16.05783462524414	-299.47772216796875	-0.0	-0.0	-0.0	-0.0	-0.0	-0.0	108105.8046875	10511.6552734375	-5067.05419921875
0.009000000000000001	-0.0	-0.0	-0.0	5.542591094970703	15.40803050994873	-322.80645751953125	-5.564881801605225	-15.909799575805664	-300.43145751953125	-0.0	-0.0	-0.0	-0.0	-0.0	-0.0	108058.984375	10631.1298828125	-4989.8623046875
0.0095	-0.0	-0.0	-0.0	5.018790245056152	15.419559478759766	-322.45330810546875	-5.778110980987549	-15.845155715942385	-298.524658203125	-0.0	-0.0	-0.0	-0.0	-0.0	-0.0	107657.890625	10417.4580078125	-5106.3662109375
0.01	-0.0	-0.0	-0.0	5.675189018249512	15.773870468139648	-323.7755432128906	-5.730687618255615	-15.886117935180664	-298.873779296875	-0.0	-0.0	-0.0	-0.0	-0.0	-0.0	107743.9375	10198.9814453125	-5161.73681640625
0.0105	-0.0	-0.0	-0.0	5.007160663604736	15.83112621307373	-321.9720458984375	-5.565215110778809	-15.709529876708984	-297.9654541015625	-0.0	-0.0	-0.0	-0.0	-0.0	-0.0	107455.8828125	10339.8427734375	-5080.4990234375
0.011	-0.0	-0.0	-0.0	5.0183868408203125	15.743395805358888	-324.3487243652344	-5.689199924468994	-15.644597053527832	-299.0581359863281	-0.0	-0.0	-0.0	-0.0	-0.0	-0.0	107787.625	10139.0634765625	-5021.24267578125
0.0115	-0.0	-0.0	-0.0	5.4409685134887695	15.776081085205078	-323.86602783203125	-5.577108383178711	-15.64455795288086	-297.82635498046875	-0.0	-0.0	-0.0	-0.0	-0.0	-0.0	107958.6640625	10149.47265625	-5054.7294921875
0.012	-0.0	-0.0	-0.0	5.05181360244751	15.887600898742676	-324.7924499511719	-5.523300647735596	-15.932599067687988	-298.524658203125	-0.0	-0.0	-0.0	-0.0	-0.0	-0.0	108015.1640625	10291.9658203125	-5161.74951171875
0.0125	-0.0	-0.0	-0.0	5.029184818267822	15.653584480285645	-322.71832275390625	-5.70848274230957	-15.579095840454102	-297.8717956542969	-0.0	-0.0	-0.0	-0.0	-0.0	-0.0	108038.265625	10289.177734375	-5028.96044921875
0.013000000000000001	-0.0	-0.0	-0.0	5.442304611206055	15.653700828552246	-323.15966796875	-5.712005615234375	-15.54461669921875	-298.2660522460937	-0.0	-0.0	-0.0	-0.0	-0.0	-0.0	108010.90625	10258.904296875	-5047.0498046875
0.0135	-0.0	-0.0	-0.0	5.162264823913574	15.55370807647705	-323.3817138671875	-5.411357879638672	-15.963425636291504	-299.22296142578125	-0.0	-0.0	-0.0	-0.0	-0.0	-0.0	107902.75	10210.236328125	-5062.27587890625
0.014	-0.0	-0.0	-0.0	5.285350322723389	15.519644737243652	-324.0889587402344	-6.098289012908936	-15.655593872070312	-298.6498718261719	-0.0	-0.0	-0.0	-0.0	-0.0	-0.0	107589.15625	10318.53125	-5043.59130859375
0.0145	-0.0	-0.0	-0.0	4.726357460021973	15.765164375305176	-323.15966796875	-5.711507320404053	-15.709970474243164	-298.4800109863281	-0.0	-0.0	-0.0	-0.0	-0.0	-0.0	108061.03125	10217.4326171875	-5021.27490234375
0.015	-0.0	-0.0	-0.0	5.485255241394043	15.44124698638916	-324.4005126953125	-5.5676679611206055	-15.666589736938477	-297.2610778808594	-0.0	-0.0	-0.0	-0.0	-0.0	-0.0	108008.71875	10165.6875	-5191.611328125
0.0155	-0.0	-0.0	-0.0	5.320187091827393	15.430364608764648	-322.4961242675781	-5.622462749481201	-15.69890308380127	-298.65283203125	-0.0	-0.0	-0.0	-0.0	-0.0	-0.0	107978.1328125	9996.6376953125	-5103.06396484375
0.016	-0.0	-0.0	-0.0	5.901790618896484	15.173666954040527	-323.5128173828125	-5.843739032745361	-16.05229949951172	-298.0875244140625	-0.0	-0.0	-0.0	-0.0	-0.0	-0.0	107676.25	10114.5625	-5147.58447265625
0.0165	-0.0	-0.0	-0.0	5.531051635742188	15.801152229309082	-323.20196533203125	-5.932522296905518	-15.72135066986084	-297.82635498046875	-0.0	-0.0	-0.0	-0.0	-0.0	-0.0	107682.3203125	10225.8837890625	-5251.32373046875
0.017	-0.0	-0.0	-0.0	5.106292724609375	15.351703643798828	-323.5971069335937	-5.688551425933838	-15.908916473388672	-298.9617614746094	-0.0	-0.0	-0.0	-0.0	-0.0	-0.0	107759.578125	10246.890625	-5139.96484375
0.0175	-0.0	-0.0	-0.0	5.52046012878418	15.476943969726562	-325.19488525390625	-5.722176551818848	-16.240232467651367	-297.9129943847656	-0.0	-0.0	-0.0	-0.0	-0.0	-0.0	107752.65625	9968.2666015625	-5121.4501953125
0.018000000000000002	-0.0	-0.0	-0.0	5.352630615234375	15.597820281982422	-325.0705261230469	-5.799002170562744	-16.184640884399414	-297.17108154296875	-0.0	-0.0	-0.0	-0.0	-0.0	-0.0	107641.703125	10342.1669921875	-5195.7861328125
0.0185	-0.0	-0.0	-0.0	5.163729667663574	15.645068168640137	-324.40643310546875	-5.766201019287109	-15.986225128173828	-297.6058349609375	-0.0	-0.0	-0.0	-0.0	-0.0	-0.0	107507.1640625	10037.9248046875	-5199.36865234375
0.019	-0.0	-0.0	-0.0	5.294641494750977	15.68695068359375	-323.324462890625	-5.277227401733398	-15.566166877746582	-297.2132568359375	-0.0	-0.0	-0.0	-0.0	-0.0	-0.0	107533.6328125	10524.25390625	-5154.7744140625
0.0195	-0.0	-0.0	-0.0	4.99578857421875	15.624796867370604	-322.9295959472656	-5.800991058349609	-15.908639907836914	-299.27496337890625	-0.0	-0.0	-0.0	-0.0	-0.0	-0.0	107472.046875	10314.3037109375	-5091.53564453125
0.02	-0.0	-0.0	-0.0	4.999388694763184	15.755475044250488	-322.8472900390625	-5.677490234375	-15.890092849731444	-297.0858154296875	-0.0	-0.0	-0.0	-0.0	-0.0	-0.0	107461.6875	10079.107421875	-5200.2451171875
0.0205	-0.0	-0.0	-0.0	5.046985626220703	15.735159873962402	-323.90655517578125	-5.833600044250488	-15.477513313293455	-297.9657897949219	-0.0	-0.0	-0.0	-0.0	-0.0	-0.0	107189.046875	10312.50390625	-5106.73193359375
